<?xml version="1.0" encoding="UTF-8"?>
<svg width="158px" height="33px" viewBox="0 0 158 33" version="1.1" xmlns="http://www.w3.org/2000/svg" xmlns:xlink="http://www.w3.org/1999/xlink">
    <!-- Generator: Sketch 48.2 (47327) - http://www.bohemiancoding.com/sketch -->
    <title>logo</title>
    <desc>Created with Sketch.</desc>
    <defs></defs>
    <g id="Page-1" stroke="none" stroke-width="1" fill="none" fill-rule="evenodd">
        <g id="logo">
            <g id="logoshapes">
                <path d="M149.662013,19.51086 L151.978362,19.51086 L152.805718,17.0974008 L141.854921,17.0974008 C141.854921,20.8860857 141.955579,22.0928153 145.709366,22.0928153 C148.034308,22.0928153 149.662013,22.1262667 149.662013,19.51086 M141.854921,14.4150912 L149.662013,14.4150912 C149.662013,10.7949024 149.130492,10.526052 145.709366,10.526052 C142.088152,10.526052 141.854921,11.2966739 141.854921,14.4150912 M156.251395,0 L116.942196,0 L116.942196,25.1096393 L112.757546,25.1096393 L112.923262,22.46202 L112.790689,22.46202 C111.727648,24.773886 109.800426,25.3115868 107.34291,25.3115868 C100.864006,25.3115868 100.665146,21.1871486 100.665146,15.789078 C100.665146,10.6264063 101.362383,7.30728043 107.34291,7.30728043 C109.468992,7.30728043 111.693277,7.7099366 112.590602,9.85454536 L112.757546,9.85454536 L112.757546,0 L90.8976884,0 C90.8976884,0 88.4831365,0 87.6938346,2.3019544 L85.7543369,7.96268079 C86.8836647,7.52533423 88.3554734,7.30728043 90.3011087,7.30728043 C97.4772501,7.30728043 98.4396338,9.41967668 98.4396338,17.0974008 L86.4478915,17.0974008 C86.4478915,20.8860857 86.548549,22.0928153 90.3011087,22.0928153 C92.6260509,22.0928153 94.2537559,22.1262667 94.2537559,19.51086 L98.4396338,19.51086 C98.4396338,25.0427364 95.2836537,25.3115868 90.3011087,25.3115868 C84.212559,25.3115868 82.5480281,23.5138819 82.3025221,18.0365189 L78.2357146,29.9018673 C78.2357146,29.9018673 77.4464127,32.2038217 79.8609646,32.2038217 L122.358059,32.2038217 C120.715624,31.4406333 119.747103,29.9142567 119.898089,26.9197337 L123.81882,26.9197337 C123.81882,29.3344318 124.714917,29.7036365 127.07423,29.7036365 C130.62793,29.7036365 131.392681,28.965227 131.392681,25.9484031 L131.392681,22.5958258 L131.292024,22.5958258 C130.195839,24.9089307 127.970327,25.3115868 125.844245,25.3115868 C119.864945,25.3115868 119.167708,21.992461 119.167708,16.8285504 C119.167708,11.4304797 119.367796,7.30728043 125.844245,7.30728043 C128.302988,7.30728043 130.228983,7.84374235 131.292024,10.1568472 L131.425825,10.1568472 L131.258881,7.50798904 L135.444758,7.50798904 L135.444758,25.0761878 C135.444758,29.1746083 134.601445,31.2461194 132.287551,32.2038217 L145.214671,32.2038217 C145.214671,32.2038217 147.627995,32.2038217 148.417297,29.9018673 L150.090421,25.0179576 C148.872711,25.2744186 147.399675,25.3115868 145.709366,25.3115868 C139.031602,25.3115868 137.670271,23.1657391 137.670271,16.3589913 C137.670271,10.0564929 138.667025,7.30728043 145.709366,7.30728043 C151.903483,7.30728043 153.464901,8.89064841 153.776694,14.2614624 L157.876645,2.3019544 C157.876645,2.3019544 158.665947,0 156.251395,0 M112.690032,15.789078 C112.690032,12.0350834 112.191654,10.526052 108.571668,10.526052 C105.682062,10.526052 104.851024,11.3635768 104.851024,15.789078 C104.851024,19.7784715 104.751594,22.0928153 108.571668,22.0928153 C112.855748,22.0928153 112.690032,19.980419 112.690032,15.789078 M90.3011087,10.526052 C86.6811222,10.526052 86.4478915,11.2966739 86.4478915,14.4150912 L94.2537559,14.4150912 C94.2537559,10.7949024 93.7234628,10.526052 90.3011087,10.526052 M131.258881,15.789078 C131.258881,12.0350834 130.695444,10.526052 127.07423,10.526052 C124.183397,10.526052 123.353586,11.3635768 123.353586,15.789078 C123.353586,19.7784715 123.353586,22.0928153 127.07423,22.0928153 C131.258881,22.0928153 131.258881,19.980419 131.258881,15.789078" id="Fill-1" fill="#CE1126"></path>
                <path d="M66.4388251,7.45460292 L66.4388251,24.8478602 L70.643892,24.8478602 L70.643892,14.1146522 C70.5773015,11.8607642 71.3110302,10.4369338 73.8131067,10.4369338 C75.7824592,10.4369338 75.9489355,11.4640995 75.9489355,13.2197081 L75.9489355,14.1146522 L79.8876404,14.1146522 L79.8876404,12.7226529 C79.8876404,9.44282351 78.9849692,7.25627057 75.2817973,7.25627057 C73.2458543,7.25627057 71.4442112,7.8194365 70.6105968,9.7415463 L70.4428874,9.7415463 L70.5427731,7.45460292 L66.4388251,7.45460292 Z M58.3628768,24.8478602 L62.5679438,24.8478602 L62.5679438,13.9481509 C62.5679438,8.1181593 60.2323435,7.25627057 54.6264097,7.25627057 C50.6211142,7.25627057 47.1177138,7.45460292 47.1177138,12.5230963 L51.3227808,12.5230963 C51.3227808,10.2704326 52.7914713,10.1051556 54.6264097,10.1051556 C58.12981,10.1051556 58.3628768,11.0992659 58.3628768,13.9150955 L58.3628768,16.1677593 L58.2296958,16.1677593 C57.2296051,14.2125941 55.1270716,14.180763 52.9912428,14.180763 C48.6529949,14.180763 46.4505756,15.3389259 46.4505756,19.5136995 C46.4505756,24.2185835 49.0204758,25.0474168 52.9912428,25.0474168 C55.0271858,25.0474168 57.5958528,24.9800818 58.4307005,22.6613073 L58.5305862,22.6613073 L58.3628768,24.8478602 Z M54.4919955,17.029648 C56.5612337,17.029648 58.3628768,17.0957588 58.3628768,19.5136995 C58.3628768,21.9989752 56.72771,22.1973075 54.4919955,22.1973075 C51.6557333,22.1973075 50.6556426,21.9659198 50.6556426,19.5136995 C50.6556426,17.029648 52.3573999,17.029648 54.4919955,17.029648 Z M38.708813,24.8478602 L42.91388,24.8478602 L42.91388,0 L38.708813,0 L38.708813,24.8478602 Z M26.8963976,10.4369338 C30.6328647,10.4369338 30.9337552,11.4971549 30.9337552,16.2008147 C30.9337552,20.8395879 30.6328647,21.8667536 26.8963976,21.8667536 C23.1586973,21.8667536 22.8578069,20.8395879 22.8578069,16.2008147 C22.8578069,11.4971549 23.1586973,10.4369338 26.8963976,10.4369338 Z M26.8963976,7.25627057 C19.5874733,7.25627057 18.6539731,9.40976811 18.6539731,16.1677593 C18.6539731,22.8939193 19.5874733,25.0474168 26.8963976,25.0474168 C34.2040888,25.0474168 35.1388221,22.8939193 35.1388221,16.1677593 C35.1388221,9.40976811 34.2040888,7.25627057 26.8963976,7.25627057 Z M15.5168205,12.1925424 C15.5168205,7.32238135 11.4128724,7.25627057 7.97482937,7.25627057 C3.47010512,7.25627057 0,7.35543675 0,12.1264316 C0,16.5656482 1.16780013,17.427537 7.6085816,17.5267031 C11.8469438,17.5928139 11.9455964,18.3543122 11.9455964,19.878533 C11.9455964,22.2634183 10.478139,22.1973075 7.97482937,22.1973075 C4.87220517,22.1973075 4.27042432,21.899809 4.20383382,19.3814779 L0,19.3814779 C0,25.0474168 3.20374311,25.0474168 7.97482937,25.0474168 C12.4129631,25.0474168 16.1506634,24.5834171 16.1506634,19.878533 C16.1506634,14.2468737 12.4795536,14.5443723 8.34231029,14.3460399 C4.6712005,14.180763 4.20383382,14.1146522 4.20383382,12.3908747 C4.20383382,10.1051556 5.73911487,10.1051556 7.97482937,10.1051556 C10.211777,10.1051556 11.3129866,10.1051556 11.3129866,12.1925424 L15.5168205,12.1925424 Z" id="Fill-3" fill="#000000"></path>
            </g>
        </g>
    </g>
</svg>